<svg width="151" height="54" viewBox="0 0 151 54" xmlns="http://www.w3.org/2000/svg"><g fill="none"><path d="M101.983288 38.9940519c-.008426.008426-.016852.008426-.016852.0168521-6.3700898 4.5079342-13.9114002 9.2433716-22.0256818 14.2147382l-.3201897.185373c-.1095386.0758344-.1348167.2275033-.0589823.3370418.0758344.1095386.2275032.1348168.3370418.0589824l.2696335-.1432428c6.8840789-3.5894953 14.7877093-7.8530741 22.7418955-12.2261916.042131-.0252781.084261-.0505563.126391-.0674084-.438154-.7246399-.800474-1.5166881-1.053256-2.3761447zm41.793185-33.83057153C133.741053-5.90834304 69.1554164 4.0512424 41.694935 10.05058659l-.6403794.13481671c-.1348167.0252781-.2190772.1516688-.193799.2780595.0252781.1348167.1516688.2190772.2780594.193799l.6319534-.1263906c22.7503221-4.05292778 70.0709916-9.66467389 80.2496546.4297283 3.109211 3.0839325 2.367719 7.0441738-1.238629 11.7290549 1.937991 1.2470547 3.319862 3.2103232 3.94339 5.6623024 14.071495-9.3360581 23.517092-18.25923998 19.051288-23.18847643z" fill="#D03027"/><g fill="#004977"><path d="M106.044642 36.0870667c.126391 3.8928329 2.595222 7.0863041 5.805545 7.0863041 6.226848 0 8.881052-7.6508491 8.695679-12.75703248-.134817-3.90125894-2.66263-7.08630402-5.872953-7.08630402-5.350539-.00842605-8.813644 7.60871882-8.628271 12.7570324zm-3.286157-.2106511c-.227504-6.64814966 4.979792-13.44796814 12.546381-13.44796814 5.055627 0 8.367063 3.37041808 8.552436 8.53558379.244355 7.01046965-4.625899 13.44796815-12.537955 13.44796815-5.07248 0-8.383915-3.361992-8.560862-8.5355838zm-71.660987-1.7526174c-.2696335.1011126-.6151013.2022251-1.0532557.2949116-.4297283.1011125-1.2217765.2359293-2.3677187.4213023-.7920482.1263906-1.3397412.2864855-1.6515048.5139887-.2949116.2190772-.4718586.4802846-.5224149.8089003-.0589823.3454679.0505563.6151013.3454679.8341785.3033376.2106512.8089003.3201897 1.5251142.3201897.5392669 0 1.0616817-.0842604 1.5672444-.2527813.5139888-.1685209.9521431-.3960241 1.2807589-.6825097.2443553-.2106511.4213022-.4802846.556119-.8089003.0842604-.2190772.193799-.6993618.3201897-1.4492798zm6.5723152-4.08663192c-.0252781.60667526-.1348167 1.14594215-.2949116 2.08123312l-1.1122379 6.2436995c-.0926865.556119.1095386.9858473.6235273 1.289185l-.0337042.2443553-6.3700901-.0084261-.0589823-1.5840965c-.926865.556119-2.047529 1.0279775-3.0586545 1.306037-1.0111254.2612074-1.8284518.370746-3.0502283.370746-2.0559551 0-3.2356014-.2106511-4.0529278-.9268649-.8257524-.733066-1.2302026-1.2217766-1.1880723-2.232902.0337041-.5813971.3370418-1.3313152.7667701-1.85373.4381543-.5308408 1.0448296-.8763087 1.6936351-1.1880723.6572315-.3117637 1.4324276-.5392669 2.5530917-.7162139 1.12909-.185373 2.6963344-.3623199 4.7944197-.5392669 1.1038119-.0926865 1.7778955-.3454678 2.0896592-.47185851.4381543-.16852091.6151013-.36231995.6740836-.71621385.1179646-.64037943-.0842604-1.01112542-.9437171-1.17964633-2.2918843-.45500644-6.5975934.29491159-8.8136432.84260453l1.2049244-3.25245345c2.9238377-.42972831 5.6623024-.69936176 8.5524359-.69936176 4.6090467 0 6.0751786 1.30603701 6.0246223 2.99124605zm18.4698911 9.85004682l2.2076239-12.47897292h6.1004567L62.2401611 39.8872131h-6.1004568zM58.68437 24.51810667c.185373-1.02797752 1.8031737-1.85372995 3.6063473-1.85372995 1.8115998 0 3.1344889.83417848 2.9575419 1.85372995-.193799 1.02797752-1.8031737 1.86215599-3.6231994 1.86215599-1.8031737 0-3.1176368-.83417847-2.9406898-1.86215599zm27.4242493 9.63096963c-.2780595.0926865-.6319534.1937991-1.0616817.2949116-.4297283.1011126-1.2217765.2275032-2.3677187.4128762-.7836222.1263907-1.3397412.2864856-1.6430788.5139888-.2949116.2106511-.4634325.4802846-.5308408.8004743-.0674084.3454678.0589823.6235273.3454678.8341785.3117637.2106511.8173264.3117636 1.5335402.3117636.5308409 0 1.0532557-.0758344 1.5672445-.2359292.5224148-.176947.9521431-.3960241 1.2891849-.6825097.2359292-.2106511.4128762-.4887106.5392669-.8089003.0842604-.2106512.193799-.6909357.3286157-1.4408538zm6.5723153-4.09505793c-.0252781.6151013-.1348167 1.1543682-.3033376 2.08123313l-1.103812 6.2521256c-.0926865.5476929.1095386.9858473.6235274 1.2891849l-.0337042.2190772-6.3700902.008426-.0505562-1.5925225c-.926865.564545-2.0559551 1.0364035-3.0586545 1.306037-1.0111254.2696334-1.8284518.379172-3.0670804.379172-2.055955 0-3.2271753-.2022251-4.0445017-.926865-.8341785-.7414919-1.2302026-1.2217765-1.1880724-2.2329019.0252781-.5898232.3286158-1.3397412.7667701-1.85373.4381544-.5392669 1.0448296-.8763087 1.7020612-1.1880724.6572315-.3117636 1.4324276-.5392668 2.5446656-.7246398 1.1290901-.176947 2.7047605-.36232 4.8028458-.5392669 1.0953859-.0926865 1.7694695-.3370418 2.0812331-.46343252.4465804-.16852091.6151013-.36231995.6825097-.72463989.1095386-.63195339-.0842604-1.00269938-.935291-1.17964633-2.3087364-.45500644-6.5975934.29491158-8.8136433.84260452l1.1964984-3.25245345c2.9322638-.42972831 5.6623024-.69936175 8.5524359-.69936175 4.5921946.00842604 6.0583265 1.3228891 6.0161963 2.99967209zM18.247779 35.4045571c-1.9885466.3960241-3.1007846.5476929-5.0640531.5476929-2.91541169 0-5.23257412-1.4492798-5.10618344-4.103484.09268649-1.76946949 2.18234571-5.49378147 7.49918024-5.49378147 1.676783 0 2.98282.29491158 4.7438634 1.29761096l.7751962-4.33098724c-2.3929968-.90158684-3.9770933-1.03640356-6.0330484-1.01955147-6.9767654.0758344-13.6670453 3.24402741-14.50122377 9.68995199-.84260452 6.54703713 7.15371238 8.19011593 10.70107737 8.17326383 2.047529-.008426 4.1793185-.0926865 6.1678651-.2949116l.8173264-4.4658039zm49.5619979-8.06372528l.4381544-2.54466566 6.3785162-1.39029746-.6825096 3.92653707h3.1260627l-.5898231 2.51096147-3.0333763-.00842604-1.8453039 10.0354198s-6.142587-.0421302-6.1678651 0l1.8368779-10.01014167h-2.3087364l.4718585-2.52781356h2.3761447v.00842605zm34.0330521-4.69365344L98.8768612 39.8784408l-6.2099953.0084261 3.1260627-17.40820942zm-53.775276 7.68489948c-.8004743 0-1.5251142.24435532-2.1654936.72463989-.6403794.48871062-1.0448296 1.19649845-1.2049245 2.13178945-.193799 1.0869598-.0758344 1.870582.3538939 2.3508666.4381544.4802846 1.0616817.7246399 1.8874342.7246399.5561189 0 1.12909-.1011126 1.5503923-.3117637.5224148-.2780595.8847347-.564545 1.1964984-1.0279775.3370418-.4802846.556119-1.0195515.6740836-1.6430788.176947-.9858473.0252782-1.71891324-.4297283-2.20762386-.4465804-.48871062-1.0616817-.74149198-1.862156-.74149198zM36.9620254 44.1929222l2.974394-16.71727366h5.3589647l-.4128762 2.13178944c.4634325-.64037944 1.2049245-1.16279424 2.232902-1.5840965 1.0364036-.42130226 2.1991978-.73306594 3.4631046-.73306594 1.3987235 0 2.2581801.07583441 3.3030097.6151013 1.0364036.54769294 1.7694695 1.33974119 2.1570676 2.36771871.4044502 1.01112542.4887106 2.15706755.2696334 3.39569625-.3623199 2.064381-1.3650193 3.6821817-3.0165242 4.8786801-1.6346527 1.1964985-3.1092106 1.5082621-5.2072959 1.5166882-.741492 0-1.3650193-.0758344-1.8790081-.2022251-.5055627-.1348167-.9100129-.2949116-1.2133505-.4887106-.2949116-.1937991-.6066752-.4718586-1.0026994-.9100129l-.9942733 5.7297107h-6.0330484zM147.694584 31.86561809c-.033704-1.00269938-.539267-1.68520904-1.575671-1.68520904-2.502535 0-5.165165 4.90395835-5.620172 6.87567465 4.103484.0084043 7.296955-2.4351488 7.195843-5.19046561zm.539267 7.68455321l.480284.3286158c-1.221776 2.4856833-3.70746 4.482656-6.622871 4.482656-2.384571 0-4.34784-1.5925225-4.448952-4.5753425-.193799-5.3505387 4.819698-10.31347935 8.923182-10.31347935 1.761043 0 3.395696.76677012 3.463104 2.66263025.151669 4.2551529-5.822397 5.5527638-9.75736 5.6454503-.126391.4465804-.176947.8931608-.151669 1.5672444.067408 1.7610435 1.12909 3.2440274 3.336714 3.2440274 1.904286 0 3.808572-1.5335402 4.777568-3.0418023z"/><path d="M123.764615 31.73080137c.421303-.05898232 1.103812-.13481672 1.398724-.13481672.44658 0 .867883.08426045.893161.53084085.008426.2612074-.463433 2.1570676-.564545 2.5952219l-.952143 4.1961705c-.387599 1.7189133-.800475 3.5136609-1.171221 4.9376625h2.443553l1.373446-6.6481496c4.187744-4.3646915 5.805545-5.7886931 6.791392-5.7886931.446581 0 .749918.23592926.775196.7667701.025278.7667701-.455006 2.5109615-.615101 3.0165242l-1.398723 4.844976c-.32019 1.0869598-.556119 2.0728071-.530841 2.7721689.04213 1.0616817.682509 1.5335402 1.643078 1.5335402 1.786322 0 3.083933-1.862156 4.213023-3.6906078l-.328616-.5982492c-.455006.7330659-1.516688 2.3424405-2.350866 2.3424405-.261208 0-.513989-.1769469-.522415-.6151013-.025278-.564545.210651-1.4155755.379172-1.9801206l1.558818-5.6791544c.421303-1.5672445.615102-2.56994384.606676-3.10921073-.042131-1.06168169-.657232-1.55881836-1.609375-1.55881836-1.609375 0-3.741164 1.17964633-8.26595 6.37851619h-.067409l.572971-2.5362396c.311764-1.39029744.615102-2.83957721.901587-3.84227659-1.567244.56454503-3.808572 1.19649842-5.190444 1.46613186l.016852.8004743z"/></g></g></svg>